<mxfile host="app.diagrams.net" modified="2021-12-30T19:30:21.671Z" agent="5.0 (X11; Linux x86_64) AppleWebKit/537.36 (KHTML, like Gecko) Chrome/96.0.4664.110 Safari/537.36" etag="n4b3yw3sN9lZqldr8xNB" version="16.1.0" type="github">
  <diagram name="Page-1" id="8ce9d11a-91a2-4d17-14d8-a56ed91bf033">
    <mxGraphModel dx="1422" dy="805" grid="1" gridSize="10" guides="1" tooltips="1" connect="1" arrows="1" fold="1" page="1" pageScale="1" pageWidth="1100" pageHeight="850" background="none" math="0" shadow="0">
      <root>
        <mxCell id="0" />
        <mxCell id="1" parent="0" />
        <mxCell id="_7L5AzAvFQkwhNv4R319-3" value="" style="edgeStyle=orthogonalEdgeStyle;rounded=0;orthogonalLoop=1;jettySize=auto;html=1;" edge="1" parent="1" source="_7L5AzAvFQkwhNv4R319-1" target="_7L5AzAvFQkwhNv4R319-2">
          <mxGeometry relative="1" as="geometry" />
        </mxCell>
        <mxCell id="_7L5AzAvFQkwhNv4R319-1" value="Print welcome and rules" style="rounded=0;whiteSpace=wrap;html=1;" vertex="1" parent="1">
          <mxGeometry x="490" y="20" width="120" height="60" as="geometry" />
        </mxCell>
        <mxCell id="_7L5AzAvFQkwhNv4R319-5" value="" style="edgeStyle=orthogonalEdgeStyle;rounded=0;orthogonalLoop=1;jettySize=auto;html=1;" edge="1" parent="1" source="_7L5AzAvFQkwhNv4R319-2" target="_7L5AzAvFQkwhNv4R319-4">
          <mxGeometry relative="1" as="geometry" />
        </mxCell>
        <mxCell id="_7L5AzAvFQkwhNv4R319-2" value="Random int 1-100" style="rounded=0;whiteSpace=wrap;html=1;" vertex="1" parent="1">
          <mxGeometry x="490" y="130" width="120" height="60" as="geometry" />
        </mxCell>
        <mxCell id="_7L5AzAvFQkwhNv4R319-7" value="hard" style="edgeStyle=orthogonalEdgeStyle;rounded=0;orthogonalLoop=1;jettySize=auto;html=1;" edge="1" parent="1" source="_7L5AzAvFQkwhNv4R319-4" target="_7L5AzAvFQkwhNv4R319-6">
          <mxGeometry relative="1" as="geometry" />
        </mxCell>
        <mxCell id="_7L5AzAvFQkwhNv4R319-9" value="" style="edgeStyle=orthogonalEdgeStyle;rounded=0;orthogonalLoop=1;jettySize=auto;html=1;" edge="1" parent="1" source="_7L5AzAvFQkwhNv4R319-4" target="_7L5AzAvFQkwhNv4R319-8">
          <mxGeometry relative="1" as="geometry" />
        </mxCell>
        <mxCell id="_7L5AzAvFQkwhNv4R319-21" value="" style="edgeStyle=orthogonalEdgeStyle;rounded=0;orthogonalLoop=1;jettySize=auto;html=1;" edge="1" parent="1" source="_7L5AzAvFQkwhNv4R319-4" target="_7L5AzAvFQkwhNv4R319-17">
          <mxGeometry relative="1" as="geometry" />
        </mxCell>
        <mxCell id="_7L5AzAvFQkwhNv4R319-4" value="Choose easy/hard" style="rounded=0;whiteSpace=wrap;html=1;" vertex="1" parent="1">
          <mxGeometry x="490" y="240" width="120" height="60" as="geometry" />
        </mxCell>
        <mxCell id="_7L5AzAvFQkwhNv4R319-6" value="5 lifes" style="whiteSpace=wrap;html=1;rounded=0;" vertex="1" parent="1">
          <mxGeometry x="290" y="240" width="120" height="60" as="geometry" />
        </mxCell>
        <mxCell id="_7L5AzAvFQkwhNv4R319-10" value="easy" style="edgeStyle=orthogonalEdgeStyle;rounded=0;orthogonalLoop=1;jettySize=auto;html=1;" edge="1" parent="1" source="_7L5AzAvFQkwhNv4R319-8" target="_7L5AzAvFQkwhNv4R319-4">
          <mxGeometry relative="1" as="geometry" />
        </mxCell>
        <mxCell id="_7L5AzAvFQkwhNv4R319-8" value="10 lifes" style="whiteSpace=wrap;html=1;rounded=0;" vertex="1" parent="1">
          <mxGeometry x="690" y="240" width="120" height="60" as="geometry" />
        </mxCell>
        <mxCell id="_7L5AzAvFQkwhNv4R319-15" value="fail to guess within 5&lt;br&gt;END GAME" style="ellipse;whiteSpace=wrap;html=1;rounded=0;" vertex="1" parent="1">
          <mxGeometry x="70" y="500" width="120" height="60" as="geometry" />
        </mxCell>
        <mxCell id="_7L5AzAvFQkwhNv4R319-41" value="" style="edgeStyle=orthogonalEdgeStyle;rounded=0;orthogonalLoop=1;jettySize=auto;html=1;" edge="1" parent="1" source="_7L5AzAvFQkwhNv4R319-17" target="_7L5AzAvFQkwhNv4R319-40">
          <mxGeometry relative="1" as="geometry" />
        </mxCell>
        <mxCell id="_7L5AzAvFQkwhNv4R319-17" value="ask player for input number" style="whiteSpace=wrap;html=1;rounded=0;" vertex="1" parent="1">
          <mxGeometry x="490" y="380" width="120" height="60" as="geometry" />
        </mxCell>
        <mxCell id="_7L5AzAvFQkwhNv4R319-19" value="fail to guess within 10&lt;br&gt;END GAME" style="ellipse;whiteSpace=wrap;html=1;rounded=0;" vertex="1" parent="1">
          <mxGeometry x="900" y="500" width="120" height="60" as="geometry" />
        </mxCell>
        <mxCell id="_7L5AzAvFQkwhNv4R319-22" value="" style="endArrow=classic;html=1;rounded=0;exitX=0;exitY=1;exitDx=0;exitDy=0;entryX=1;entryY=0;entryDx=0;entryDy=0;" edge="1" parent="1" source="_7L5AzAvFQkwhNv4R319-8" target="_7L5AzAvFQkwhNv4R319-17">
          <mxGeometry width="50" height="50" relative="1" as="geometry">
            <mxPoint x="520" y="460" as="sourcePoint" />
            <mxPoint x="730" y="430" as="targetPoint" />
          </mxGeometry>
        </mxCell>
        <mxCell id="_7L5AzAvFQkwhNv4R319-23" value="" style="endArrow=classic;html=1;rounded=0;exitX=1;exitY=1;exitDx=0;exitDy=0;entryX=0;entryY=0;entryDx=0;entryDy=0;" edge="1" parent="1" source="_7L5AzAvFQkwhNv4R319-6" target="_7L5AzAvFQkwhNv4R319-17">
          <mxGeometry width="50" height="50" relative="1" as="geometry">
            <mxPoint x="520" y="460" as="sourcePoint" />
            <mxPoint x="570" y="410" as="targetPoint" />
          </mxGeometry>
        </mxCell>
        <mxCell id="_7L5AzAvFQkwhNv4R319-24" value="is higher" style="rounded=0;whiteSpace=wrap;html=1;" vertex="1" parent="1">
          <mxGeometry x="310" y="500" width="120" height="60" as="geometry" />
        </mxCell>
        <mxCell id="_7L5AzAvFQkwhNv4R319-25" value="is lower" style="rounded=0;whiteSpace=wrap;html=1;" vertex="1" parent="1">
          <mxGeometry x="680" y="500" width="120" height="60" as="geometry" />
        </mxCell>
        <mxCell id="_7L5AzAvFQkwhNv4R319-27" value="" style="edgeStyle=segmentEdgeStyle;endArrow=classic;html=1;rounded=0;exitX=0.5;exitY=0;exitDx=0;exitDy=0;entryX=1;entryY=0.5;entryDx=0;entryDy=0;" edge="1" parent="1" source="_7L5AzAvFQkwhNv4R319-25" target="_7L5AzAvFQkwhNv4R319-17">
          <mxGeometry width="50" height="50" relative="1" as="geometry">
            <mxPoint x="520" y="510" as="sourcePoint" />
            <mxPoint x="570" y="460" as="targetPoint" />
            <Array as="points">
              <mxPoint x="740" y="410" />
            </Array>
          </mxGeometry>
        </mxCell>
        <mxCell id="_7L5AzAvFQkwhNv4R319-28" value="" style="edgeStyle=segmentEdgeStyle;endArrow=classic;html=1;rounded=0;exitX=0.5;exitY=0;exitDx=0;exitDy=0;entryX=0;entryY=0.5;entryDx=0;entryDy=0;" edge="1" parent="1" source="_7L5AzAvFQkwhNv4R319-24" target="_7L5AzAvFQkwhNv4R319-17">
          <mxGeometry width="50" height="50" relative="1" as="geometry">
            <mxPoint x="520" y="510" as="sourcePoint" />
            <mxPoint x="570" y="460" as="targetPoint" />
            <Array as="points">
              <mxPoint x="370" y="410" />
            </Array>
          </mxGeometry>
        </mxCell>
        <mxCell id="_7L5AzAvFQkwhNv4R319-29" value="" style="endArrow=classic;html=1;rounded=0;entryX=1;entryY=0.5;entryDx=0;entryDy=0;exitX=0.5;exitY=1;exitDx=0;exitDy=0;" edge="1" parent="1" source="_7L5AzAvFQkwhNv4R319-17" target="_7L5AzAvFQkwhNv4R319-24">
          <mxGeometry width="50" height="50" relative="1" as="geometry">
            <mxPoint x="520" y="510" as="sourcePoint" />
            <mxPoint x="570" y="460" as="targetPoint" />
          </mxGeometry>
        </mxCell>
        <mxCell id="_7L5AzAvFQkwhNv4R319-30" value="" style="endArrow=classic;html=1;rounded=0;exitX=0.5;exitY=1;exitDx=0;exitDy=0;entryX=0;entryY=0.5;entryDx=0;entryDy=0;" edge="1" parent="1" source="_7L5AzAvFQkwhNv4R319-17" target="_7L5AzAvFQkwhNv4R319-25">
          <mxGeometry width="50" height="50" relative="1" as="geometry">
            <mxPoint x="630" y="580" as="sourcePoint" />
            <mxPoint x="580" y="570" as="targetPoint" />
          </mxGeometry>
        </mxCell>
        <mxCell id="_7L5AzAvFQkwhNv4R319-31" value="" style="endArrow=classic;html=1;rounded=0;entryX=1;entryY=0.5;entryDx=0;entryDy=0;exitX=0;exitY=0.5;exitDx=0;exitDy=0;" edge="1" parent="1" source="_7L5AzAvFQkwhNv4R319-24" target="_7L5AzAvFQkwhNv4R319-15">
          <mxGeometry width="50" height="50" relative="1" as="geometry">
            <mxPoint x="520" y="400" as="sourcePoint" />
            <mxPoint x="570" y="350" as="targetPoint" />
          </mxGeometry>
        </mxCell>
        <mxCell id="_7L5AzAvFQkwhNv4R319-32" value="" style="endArrow=classic;html=1;rounded=0;entryX=1;entryY=0.5;entryDx=0;entryDy=0;" edge="1" parent="1" source="_7L5AzAvFQkwhNv4R319-19" target="_7L5AzAvFQkwhNv4R319-25">
          <mxGeometry width="50" height="50" relative="1" as="geometry">
            <mxPoint x="520" y="400" as="sourcePoint" />
            <mxPoint x="570" y="350" as="targetPoint" />
          </mxGeometry>
        </mxCell>
        <mxCell id="_7L5AzAvFQkwhNv4R319-40" value="Success within limit" style="shape=hexagon;perimeter=hexagonPerimeter2;whiteSpace=wrap;html=1;fixedSize=1;rounded=0;" vertex="1" parent="1">
          <mxGeometry x="490" y="630" width="120" height="80" as="geometry" />
        </mxCell>
      </root>
    </mxGraphModel>
  </diagram>
</mxfile>
